<?xml version="1.0" encoding="UTF-8"?>
<svg id="Capa_1" data-name="Capa 1" xmlns="http://www.w3.org/2000/svg" viewBox="0 0 2022.73 540.08">
  <defs>
    <style>
      .cls-1 {
        fill: #0091d7;
      }

      .cls-1, .cls-2, .cls-3, .cls-4, .cls-5, .cls-6, .cls-7, .cls-8, .cls-9, .cls-10, .cls-11 {
        stroke-width: 0px;
      }

      .cls-2 {
        fill: #e12023;
      }

      .cls-3 {
        fill: #fdfefe;
      }

      .cls-4 {
        fill: #0192d7;
      }

      .cls-5 {
        fill: #e02c2d;
      }

      .cls-6 {
        fill: #e32f30;
      }

      .cls-7 {
        fill: #fed701;
      }

      .cls-8 {
        fill: #098745;
      }

      .cls-9 {
        fill: #dd1011;
      }

      .cls-10 {
        fill: #fefdfc;
      }

      .cls-11 {
        fill: #0291d7;
      }
    </style>
  </defs>
  <path class="cls-4" d="M44.75,102.76q211.1,0,266.19,55.02c25.11,26.31,42.51,56.28,49,92.37.51,2.53,1.03,5.05,1.56,7.65,4.16,48.31-5.02,97.03-35.43,135.91-3.03,3.58-6.1,7.12-9.21,10.63-1.2,1.42-2.41,2.84-3.65,4.3-29.66,32.53-74.62,45.41-116.53,52.39H44.75V102.76Z"/>
  <path class="cls-4" d="M1899.62,202.53c6.66,4.76,12.69,9.71,18.14,15.87,1.5-8.23,2.99-16.46,4.54-24.94h56.69v267.57h-58.96c-.75-8.98-1.5-17.96-2.27-27.21-2.53,2.76-5.05,5.52-7.65,8.36-18.29,18.29-41.08,26.1-66.67,26.51-22.23-.04-41.11-.8-61.73-9.93-1.82-.8-3.64-1.59-5.51-2.41-29.73-14.81-50.52-41.32-62.37-71.82-13.68-41.89-12.84-85.03,5.36-125.52,18.82-34.89,46.88-58.79,84.72-70.48,32.39-7.44,67.63-3.85,95.71,14Z"/>
  <path class="cls-2" d="M1452.34,201.96c10.13,7.12,17.87,15.84,25.51,25.51.91-.99,1.82-1.98,2.75-2.99,22.17-23.23,48.05-36.24,80.3-38.36,28.28-.53,54.3,2.87,75.67,23.22,27.86,29.12,28.21,65.8,27.88,103.78-.01,4.28-.02,8.56-.03,12.85-.03,11.18-.09,22.37-.17,33.55-.07,11.45-.1,22.89-.13,34.34-.07,22.4-.19,44.79-.33,67.19h-63.49c-.02-5.09-.04-10.18-.06-15.42-.08-16.9-.2-33.8-.35-50.69-.09-10.24-.16-20.47-.2-30.71-.03-9.9-.11-19.79-.22-29.68-.03-3.76-.05-7.52-.05-11.27-.02-24.23-1.72-45.05-14.56-66.3-11.77-10.76-23.78-12.75-39.32-12.28-13.85,2.01-26.39,8.35-35.79,18.8-8.99,13.62-12.49,24.53-12.46,40.79-.02,1.71-.05,3.41-.07,5.17-.07,5.58-.09,11.16-.11,16.75-.04,3.89-.08,7.78-.12,11.68-.11,10.2-.18,20.41-.23,30.61-.07,10.43-.17,20.86-.28,31.28-.19,20.43-.34,40.86-.47,61.29h-65.76c-.02-5.25-.04-10.5-.06-15.91-.08-17.4-.2-34.81-.35-52.21-.09-10.55-.16-21.09-.2-31.64-.03-10.19-.11-20.38-.22-30.57-.03-3.88-.05-7.75-.05-11.63-.02-23.46-.28-43.01-15.83-61.84-13.13-10.63-23.33-12.9-40.04-12.4-15.73,1.82-25.45,9.16-35.48,21.02-8.06,12.62-10.82,23.53-10.79,38.41-.02,1.71-.05,3.41-.07,5.17-.07,5.58-.09,11.16-.11,16.75-.04,3.89-.08,7.78-.12,11.68-.11,10.2-.18,20.41-.23,30.61-.07,10.43-.17,20.86-.28,31.28-.19,20.43-.34,40.86-.47,61.29h-65.76V193.46h56.69c.75,8.23,1.5,16.46,2.27,24.94,1.32-1.18,2.64-2.36,4-3.57,37.69-32.06,86.45-39.13,129.22-12.87Z"/>
  <path class="cls-2" d="M606.68,205.08c29.26,20.31,44.63,49.38,52.58,83.62,3.49,19.69,3.28,39.25,0,58.96h-190.48q10.44,34.75,35.78,56.67c25.55,11.58,56.21,9.62,82.14.02,8.58-4.13,16.75-8.77,24.94-13.61,3.01-1.54,6.03-3.06,9.07-4.54v-4.54h4.54c3.55,7.72,7.03,15.48,10.49,23.24,1.01,2.2,2.02,4.39,3.06,6.65.94,2.12,1.87,4.24,2.83,6.42q1.32,2.92,2.66,5.9,1.36,5.4-.38,10.43c-12.67,18.36-45.48,27.23-66.14,31.96-44.21,6.59-87.22,2.19-124.86-23.38-29.23-22.03-46.14-52.59-52.15-88.44-3.99-43.59,2.82-84.22,29.79-119.76,42.47-49.73,119.48-62.53,176.14-29.61Z"/>
  <path class="cls-3" d="M110.51,161.71q105.89,0,136.05,22.68,2.65,1.96,5.35,3.95c25.14,20.33,36.14,48.65,40,79.95,2.61,37.64-5.41,68.17-28.88,97.98-24.46,27.39-60.98,34.59-95.83,38.08h-56.69v-242.63Z"/>
  <path class="cls-7" d="M922.3,209.33c6.41,4.96,12.39,10.16,18.14,15.87-10.6,16.46-22.16,32.05-34.01,47.62-6.16-2.95-11.77-6.25-17.43-10.06-19.51-12.1-38.99-15.79-61.93-12.61-9.7,3.62-18.34,8.31-27.21,13.61-1.7.81-3.4,1.63-5.16,2.46-5.29,2.8-6.03,5.7-8.45,11.14-1.45,2.01-2.9,4.02-4.39,6.09-12.8,20.55-14.39,42.26-10.42,66.03,5.4,20.65,16.06,36.51,34.42,47.57,21.39,11.09,40.11,12.33,63.3,5.88,13.24-4.36,24.02-10.47,35.01-18.99,8.96,8.64,16.91,17.76,24.66,27.49,1.16,1.41,2.32,2.81,3.51,4.26,2.89,3.63,5.53,7.47,8.11,11.33-3.04,9.12-8.94,11.96-16.72,16.87-1.44.91-2.87,1.82-4.35,2.75-36.71,22.58-76.29,25.08-117.48,15.53-34.83-9.18-64.85-33.13-84.38-62.78-18.93-32.79-22.3-68.73-15.94-105.8,2.03-7.26,4.51-13.88,7.57-20.76,1.02-2.41,2.05-4.81,3.1-7.29,16.86-35.28,46.01-58.03,81.38-72.92,43.37-14.82,90.53-7.63,128.67,16.71Z"/>
  <path class="cls-8" d="M990.32,86.88h68.03v374.15h-68.03V86.88Z"/>
  <path class="cls-3" d="M1892.05,253.99c17.51,14.44,28.53,35.25,30.75,58,.27,5.71.36,11.38.35,17.1,0,2.01,0,4.02-.01,6.09-.28,14.79-2.24,26.8-9.91,39.69-1.4,2.48-2.81,4.96-4.25,7.51-11.8,14.92-24.77,22.5-43.37,26.5-20.86,2.29-43.37,3.36-61.22-9.07-1.57-1.05-3.14-2.1-4.76-3.18-15.95-12.19-26.54-31.33-29.26-51.24-1.82-28.92-.73-56.57,18.71-79.94,27.74-27.68,69.71-32.65,102.97-11.45Z"/>
  <path class="cls-1" d="M1133.18,193.46h63.49v267.57h-63.49V193.46Z"/>
  <path class="cls-10" d="M570.82,247.88c11.25,8.86,18.44,17.86,22.68,31.75q1.12,11.22,2.27,22.68h-126.98c2.45-19.64,6.29-35.11,21.4-48.61,23.07-17.71,55.55-22.19,80.64-5.81Z"/>
  <path class="cls-11" d="M1183.63,87.17c8.69,5.92,15.08,12.88,19.84,22.39,1.15,12.54,1.67,23.61-3.68,35.15-10.4,10.95-17.38,15.3-32.6,15.73-12.41-.48-21.46-1.91-30.45-11.12-9.97-11.52-11.17-18.61-10.99-33.5.89-8.83,3.7-13.4,9.7-19.87,15.24-11.51,29.92-15.11,48.19-8.79Z"/>
  <path class="cls-9" d="M1260.16,193.46h56.69c.75,8.23,1.5,16.46,2.27,24.94q-4.54-9.07-4.54-20.41h-49.89v260.77h58.96c-.05-5.19-.09-10.39-.14-15.74-.15-17.21-.25-34.41-.33-51.62-.05-10.43-.11-20.85-.21-31.28-.1-10.07-.15-20.14-.18-30.21-.02-3.83-.05-7.67-.1-11.5q-.46-37.01,10.03-52.39c.75,1.5,1.5,2.99,2.27,4.54-1.71,3.8-3.42,7.6-5.14,11.4-2.7,7.29-2.66,14.63-2.64,22.3-.02,1.71-.05,3.41-.07,5.17-.07,5.58-.09,11.16-.11,16.75-.04,3.89-.08,7.78-.12,11.68-.11,10.2-.18,20.41-.23,30.61-.07,10.43-.17,20.86-.28,31.28-.19,20.43-.34,40.86-.47,61.29h-65.76V193.46Z"/>
  <path class="cls-6" d="M1493.72,284.16h2.27v176.87c-3.74-.75-7.48-1.5-11.34-2.27q2.24-1.12,4.54-2.27c-.01-2.06-.02-4.12-.03-6.24-.09-19.39-.16-38.77-.2-58.16-.02-9.97-.06-19.93-.11-29.9-.05-9.62-.08-19.23-.09-28.85,0-3.67-.02-7.34-.05-11.01-.03-5.14-.04-10.27-.04-15.41-.01-2.93-.02-5.85-.03-8.87q.55-7.1,5.08-13.91Z"/>
  <path class="cls-5" d="M654.72,286.43l4.54,2.27c3.48,18.42,4.22,38.37,0,56.69h-2.27c-2.37-9.63-2.42-18.6-2.27-28.49.15-9.2.07-17.07-2.27-25.94l2.27-4.54Z"/>
</svg>